<mxfile host="app.diagrams.net" modified="2024-05-22T20:57:55.132Z" agent="Mozilla/5.0 (Windows NT 10.0; Win64; x64) AppleWebKit/537.36 (KHTML, like Gecko) Chrome/124.0.0.0 Safari/537.36" etag="q_qYLPGiqrO_IzvliQuJ" version="24.4.6" type="device">
  <diagram name="Страница — 1" id="ssTJ85fY-xO00PccsnGq">
    <mxGraphModel dx="1434" dy="738" grid="0" gridSize="10" guides="0" tooltips="1" connect="0" arrows="0" fold="1" page="1" pageScale="1" pageWidth="827" pageHeight="1169" math="0" shadow="0">
      <root>
        <mxCell id="0" />
        <mxCell id="1" parent="0" />
        <mxCell id="D6VQ-wn9PyuagRhP66bS-7" style="edgeStyle=orthogonalEdgeStyle;rounded=1;orthogonalLoop=1;jettySize=auto;html=1;entryX=0.5;entryY=0;entryDx=0;entryDy=0;curved=0;endArrow=baseDash;endFill=0;" parent="1" source="D6VQ-wn9PyuagRhP66bS-2" target="D6VQ-wn9PyuagRhP66bS-6" edge="1">
          <mxGeometry relative="1" as="geometry" />
        </mxCell>
        <mxCell id="D6VQ-wn9PyuagRhP66bS-9" style="edgeStyle=orthogonalEdgeStyle;rounded=1;orthogonalLoop=1;jettySize=auto;html=1;entryX=0.5;entryY=0;entryDx=0;entryDy=0;curved=0;endArrow=baseDash;endFill=0;" parent="1" source="D6VQ-wn9PyuagRhP66bS-2" target="D6VQ-wn9PyuagRhP66bS-8" edge="1">
          <mxGeometry relative="1" as="geometry">
            <Array as="points">
              <mxPoint x="418" y="463" />
              <mxPoint x="268" y="463" />
            </Array>
          </mxGeometry>
        </mxCell>
        <mxCell id="x6lsuDmqHwAYkj_dxjik-22" style="edgeStyle=orthogonalEdgeStyle;rounded=1;orthogonalLoop=1;jettySize=auto;html=1;entryX=0.5;entryY=0;entryDx=0;entryDy=0;endArrow=none;endFill=0;curved=0;" parent="1" source="D6VQ-wn9PyuagRhP66bS-2" target="D6VQ-wn9PyuagRhP66bS-3" edge="1">
          <mxGeometry relative="1" as="geometry">
            <Array as="points">
              <mxPoint x="418" y="463" />
              <mxPoint x="572" y="463" />
            </Array>
          </mxGeometry>
        </mxCell>
        <mxCell id="x6lsuDmqHwAYkj_dxjik-23" style="edgeStyle=orthogonalEdgeStyle;rounded=1;orthogonalLoop=1;jettySize=auto;html=1;entryX=0.5;entryY=0;entryDx=0;entryDy=0;endArrow=none;endFill=0;curved=0;" parent="1" source="D6VQ-wn9PyuagRhP66bS-2" target="x6lsuDmqHwAYkj_dxjik-15" edge="1">
          <mxGeometry relative="1" as="geometry">
            <Array as="points">
              <mxPoint x="418" y="463" />
              <mxPoint x="718" y="463" />
            </Array>
          </mxGeometry>
        </mxCell>
        <mxCell id="D6VQ-wn9PyuagRhP66bS-2" value="Директор&amp;nbsp;" style="rounded=1;whiteSpace=wrap;html=1;" parent="1" vertex="1">
          <mxGeometry x="358" y="363" width="120" height="60" as="geometry" />
        </mxCell>
        <mxCell id="D6VQ-wn9PyuagRhP66bS-3" value="Отдел маркетинга&amp;nbsp;" style="rounded=1;whiteSpace=wrap;html=1;" parent="1" vertex="1">
          <mxGeometry x="512" y="543" width="120" height="60" as="geometry" />
        </mxCell>
        <mxCell id="D6VQ-wn9PyuagRhP66bS-13" style="edgeStyle=orthogonalEdgeStyle;rounded=1;orthogonalLoop=1;jettySize=auto;html=1;entryX=0.5;entryY=0;entryDx=0;entryDy=0;endArrow=baseDash;endFill=0;curved=0;" parent="1" source="D6VQ-wn9PyuagRhP66bS-6" target="D6VQ-wn9PyuagRhP66bS-10" edge="1">
          <mxGeometry relative="1" as="geometry" />
        </mxCell>
        <mxCell id="D6VQ-wn9PyuagRhP66bS-6" value="Отдел технического обслуживания" style="rounded=1;whiteSpace=wrap;html=1;" parent="1" vertex="1">
          <mxGeometry x="358" y="543" width="120" height="60" as="geometry" />
        </mxCell>
        <mxCell id="D6VQ-wn9PyuagRhP66bS-12" style="edgeStyle=orthogonalEdgeStyle;rounded=1;orthogonalLoop=1;jettySize=auto;html=1;entryX=0.5;entryY=0;entryDx=0;entryDy=0;curved=0;endArrow=baseDash;endFill=0;" parent="1" source="D6VQ-wn9PyuagRhP66bS-8" target="D6VQ-wn9PyuagRhP66bS-11" edge="1">
          <mxGeometry relative="1" as="geometry" />
        </mxCell>
        <mxCell id="D6VQ-wn9PyuagRhP66bS-8" value="Отдел продаж" style="rounded=1;whiteSpace=wrap;html=1;" parent="1" vertex="1">
          <mxGeometry x="208" y="543" width="120" height="60" as="geometry" />
        </mxCell>
        <mxCell id="x6lsuDmqHwAYkj_dxjik-4" style="edgeStyle=orthogonalEdgeStyle;rounded=0;orthogonalLoop=1;jettySize=auto;html=1;endArrow=none;endFill=0;" parent="1" source="D6VQ-wn9PyuagRhP66bS-10" edge="1">
          <mxGeometry relative="1" as="geometry">
            <mxPoint x="417.9999999999998" y="733" as="targetPoint" />
          </mxGeometry>
        </mxCell>
        <mxCell id="D6VQ-wn9PyuagRhP66bS-10" value="Менеджер отдела технического обслуживания" style="rounded=1;whiteSpace=wrap;html=1;" parent="1" vertex="1">
          <mxGeometry x="358" y="633" width="120" height="60" as="geometry" />
        </mxCell>
        <mxCell id="x6lsuDmqHwAYkj_dxjik-2" style="edgeStyle=orthogonalEdgeStyle;rounded=0;orthogonalLoop=1;jettySize=auto;html=1;endArrow=none;endFill=0;" parent="1" source="D6VQ-wn9PyuagRhP66bS-11" edge="1">
          <mxGeometry relative="1" as="geometry">
            <mxPoint x="267.9999999999998" y="723" as="targetPoint" />
          </mxGeometry>
        </mxCell>
        <mxCell id="D6VQ-wn9PyuagRhP66bS-11" value="Начальник отдела продаж&amp;nbsp;" style="rounded=1;whiteSpace=wrap;html=1;" parent="1" vertex="1">
          <mxGeometry x="208" y="633" width="120" height="60" as="geometry" />
        </mxCell>
        <mxCell id="x6lsuDmqHwAYkj_dxjik-3" value="Менеджеры" style="rounded=1;whiteSpace=wrap;html=1;" parent="1" vertex="1">
          <mxGeometry x="208" y="723" width="120" height="60" as="geometry" />
        </mxCell>
        <mxCell id="x6lsuDmqHwAYkj_dxjik-5" value="Механики&amp;nbsp;" style="rounded=1;whiteSpace=wrap;html=1;" parent="1" vertex="1">
          <mxGeometry x="358" y="733" width="120" height="60" as="geometry" />
        </mxCell>
        <mxCell id="x6lsuDmqHwAYkj_dxjik-6" style="edgeStyle=orthogonalEdgeStyle;rounded=1;orthogonalLoop=1;jettySize=auto;html=1;entryX=0.5;entryY=0;entryDx=0;entryDy=0;endArrow=baseDash;endFill=0;curved=0;" parent="1" target="x6lsuDmqHwAYkj_dxjik-7" edge="1">
          <mxGeometry relative="1" as="geometry">
            <mxPoint x="572" y="603" as="sourcePoint" />
          </mxGeometry>
        </mxCell>
        <mxCell id="x6lsuDmqHwAYkj_dxjik-7" value="SMM-специалист&amp;nbsp;" style="rounded=1;whiteSpace=wrap;html=1;" parent="1" vertex="1">
          <mxGeometry x="512" y="633" width="120" height="60" as="geometry" />
        </mxCell>
        <mxCell id="x6lsuDmqHwAYkj_dxjik-8" style="edgeStyle=orthogonalEdgeStyle;rounded=1;orthogonalLoop=1;jettySize=auto;html=1;entryX=0.5;entryY=0;entryDx=0;entryDy=0;curved=0;endArrow=baseDash;endFill=0;" parent="1" target="x6lsuDmqHwAYkj_dxjik-9" edge="1">
          <mxGeometry relative="1" as="geometry">
            <mxPoint x="278" y="463" as="sourcePoint" />
          </mxGeometry>
        </mxCell>
        <mxCell id="x6lsuDmqHwAYkj_dxjik-9" value="Юридический отдел&amp;nbsp;" style="rounded=1;whiteSpace=wrap;html=1;" parent="1" vertex="1">
          <mxGeometry x="48" y="543" width="120" height="60" as="geometry" />
        </mxCell>
        <mxCell id="x6lsuDmqHwAYkj_dxjik-11" style="edgeStyle=orthogonalEdgeStyle;rounded=0;orthogonalLoop=1;jettySize=auto;html=1;endArrow=none;endFill=0;" parent="1" edge="1">
          <mxGeometry relative="1" as="geometry">
            <mxPoint x="107.99999999999977" y="633" as="targetPoint" />
            <mxPoint x="108" y="603" as="sourcePoint" />
          </mxGeometry>
        </mxCell>
        <mxCell id="x6lsuDmqHwAYkj_dxjik-12" value="Юрисконсульт" style="rounded=1;whiteSpace=wrap;html=1;" parent="1" vertex="1">
          <mxGeometry x="48" y="633" width="120" height="60" as="geometry" />
        </mxCell>
        <mxCell id="x6lsuDmqHwAYkj_dxjik-15" value="Бухгалтерия&amp;nbsp;" style="rounded=1;whiteSpace=wrap;html=1;" parent="1" vertex="1">
          <mxGeometry x="658" y="543" width="120" height="60" as="geometry" />
        </mxCell>
        <mxCell id="x6lsuDmqHwAYkj_dxjik-20" value="Бухгалтер&amp;nbsp;" style="rounded=1;whiteSpace=wrap;html=1;" parent="1" vertex="1">
          <mxGeometry x="658" y="633" width="120" height="60" as="geometry" />
        </mxCell>
        <mxCell id="x6lsuDmqHwAYkj_dxjik-21" style="edgeStyle=orthogonalEdgeStyle;rounded=1;orthogonalLoop=1;jettySize=auto;html=1;entryX=0.5;entryY=0;entryDx=0;entryDy=0;endArrow=baseDash;endFill=0;curved=0;" parent="1" edge="1">
          <mxGeometry relative="1" as="geometry">
            <mxPoint x="717.5" y="603" as="sourcePoint" />
            <mxPoint x="717.5" y="633" as="targetPoint" />
            <Array as="points">
              <mxPoint x="717.5" y="623" />
              <mxPoint x="717.5" y="623" />
            </Array>
          </mxGeometry>
        </mxCell>
      </root>
    </mxGraphModel>
  </diagram>
</mxfile>
